We're Not Dressing is a bouncy musical-comedy variation of J. M. Barrie's The Admirable Crichton -- complete with a happier ending, as befitting its jaunty star Bing Crosby. Der Bingle is cast as Stephen Jones, a lowly crew member on yacht owned by wealthy Doris Worthington (Carole Lombard). During one memorable voyage, Doris' inebriated Uncle Dudley (Leon Errol) mans the controls of the yacht, and the result is a shipwreck on a tropical isle. Doris and her marooned society friends are then obliged to take orders from Stephen, the only one among them who knows how to fend for himself. He even manages to win over the icy Doris, though it's quite a struggle right up to the fade-out. Ethel Merman is on hand for a song or two (including a rollicking duet with Leon Errol), while George Burns and Gracie Allen show up on the not-so-deserted island as anthropologists with a full quota of rib-tickling verbal gags. Everyone involved in the making of We're Not Dressing harbored happy memories of the film, though Ray Milland (cast as Doris' snooty society fiancé) had less pleasant memories of the trained bear which figures prominently in the opening scenes. Bing Crosby's musical numbers include two of his best, "May I" and "Love Thy Neighbor."


 
http://www.imdb.com/title/tt0025965/



Subtitles:


 
http://www.opensubtitles.org/en/search/imdbid-25965/sublanguageid-all




Director:
Norman Taurog






	Bing Crosby	... 	Stephen Jones

	Carole Lombard	... 	Doris Worthington

	George Burns	... 	George Martin

	Gracie Allen	... 	Gracie Martin
	Ethel Merman	... 	Edith



 Video #2
      ID : 2
      Format : VC-1
      Format profile : MP@ML
      Codec ID : WMV3
      Codec ID/Info : Windows Media Video 9
      Codec ID/Hint : WMV3
      Duration : 1h 11mn
      Bit rate mode : Variable
      Bit rate : 1 000 Kbps
      Width : 640 pixels
      Height : 480 pixels
      Display aspect ratio : 4/3
      Frame rate : 25.000 fps
      Resolution : 24 bits
      Scan type : Progressive
      Bits/(Pixel*Frame) : 0.130
      Stream size : 508 MiB (90%)
   Audio #1
      ID : 1
      Format : WMA2
      Format profile : L
      Codec ID : 161
      Codec ID/Info : Windows Media Audio 2
      Description of the codec : Windows Media Audio 9.2 -  96 kbps, 44 kHz, stereo 2-pass VBR
      Duration : 1h 11mn
      Bit rate mode : Variable
      Bit rate : 96.0 Kbps
      Channel(s) : 2 channels
      Sampling rate : 44.1 KHz
      Resolution : 16 bits
      Stream size : 48.8 MiB (9%)



Please seed at least as much as you D/L.
=======================================
Thanks 

John


